<mxfile host="app.diagrams.net" agent="Mozilla/5.0 (Macintosh; Intel Mac OS X 10_15_7) AppleWebKit/605.1.15 (KHTML, like Gecko) Version/18.0.1 Safari/605.1.15" version="25.0.3">
  <diagram name="Side-1" id="XNTgyswPlQL0MMfTTr4J">
    <mxGraphModel dx="1060" dy="719" grid="0" gridSize="10" guides="1" tooltips="1" connect="1" arrows="1" fold="1" page="0" pageScale="1" pageWidth="827" pageHeight="1169" math="0" shadow="0">
      <root>
        <mxCell id="0" />
        <mxCell id="1" parent="0" />
        <mxCell id="rwar1H766Dd_d3rqaXCX-5" style="edgeStyle=orthogonalEdgeStyle;rounded=0;orthogonalLoop=1;jettySize=auto;html=1;entryX=0.5;entryY=0;entryDx=0;entryDy=0;" edge="1" parent="1" source="rwar1H766Dd_d3rqaXCX-1" target="rwar1H766Dd_d3rqaXCX-3">
          <mxGeometry relative="1" as="geometry" />
        </mxCell>
        <mxCell id="rwar1H766Dd_d3rqaXCX-1" value="" style="ellipse;whiteSpace=wrap;html=1;aspect=fixed;fillColor=#000000;" vertex="1" parent="1">
          <mxGeometry x="400" y="120" width="40" height="40" as="geometry" />
        </mxCell>
        <mxCell id="rwar1H766Dd_d3rqaXCX-7" style="edgeStyle=orthogonalEdgeStyle;rounded=0;orthogonalLoop=1;jettySize=auto;html=1;entryX=0.5;entryY=0;entryDx=0;entryDy=0;" edge="1" parent="1" source="rwar1H766Dd_d3rqaXCX-3" target="rwar1H766Dd_d3rqaXCX-6">
          <mxGeometry relative="1" as="geometry" />
        </mxCell>
        <mxCell id="rwar1H766Dd_d3rqaXCX-3" value="&lt;b&gt;&lt;font style=&quot;font-size: 15px;&quot;&gt;Checkout&lt;/font&gt;&lt;/b&gt;" style="rounded=1;whiteSpace=wrap;html=1;fillColor=#e1d5e7;strokeColor=#9673a6;" vertex="1" parent="1">
          <mxGeometry x="355" y="200" width="130" height="40" as="geometry" />
        </mxCell>
        <mxCell id="rwar1H766Dd_d3rqaXCX-9" style="edgeStyle=orthogonalEdgeStyle;rounded=0;orthogonalLoop=1;jettySize=auto;html=1;entryX=0.5;entryY=0;entryDx=0;entryDy=0;" edge="1" parent="1" source="rwar1H766Dd_d3rqaXCX-6" target="rwar1H766Dd_d3rqaXCX-8">
          <mxGeometry relative="1" as="geometry" />
        </mxCell>
        <mxCell id="rwar1H766Dd_d3rqaXCX-22" style="edgeStyle=orthogonalEdgeStyle;rounded=0;orthogonalLoop=1;jettySize=auto;html=1;endArrow=none;endFill=0;dashed=1;" edge="1" parent="1" source="rwar1H766Dd_d3rqaXCX-6" target="rwar1H766Dd_d3rqaXCX-20">
          <mxGeometry relative="1" as="geometry" />
        </mxCell>
        <mxCell id="rwar1H766Dd_d3rqaXCX-6" value="&lt;b&gt;&lt;font style=&quot;font-size: 15px;&quot;&gt;Setup .NET&lt;/font&gt;&lt;/b&gt;" style="rounded=1;whiteSpace=wrap;html=1;fillColor=#e1d5e7;strokeColor=#9673a6;" vertex="1" parent="1">
          <mxGeometry x="355" y="280" width="130" height="40" as="geometry" />
        </mxCell>
        <mxCell id="rwar1H766Dd_d3rqaXCX-11" style="edgeStyle=orthogonalEdgeStyle;rounded=0;orthogonalLoop=1;jettySize=auto;html=1;entryX=0.5;entryY=0;entryDx=0;entryDy=0;" edge="1" parent="1" source="rwar1H766Dd_d3rqaXCX-8" target="rwar1H766Dd_d3rqaXCX-10">
          <mxGeometry relative="1" as="geometry" />
        </mxCell>
        <mxCell id="rwar1H766Dd_d3rqaXCX-8" value="&lt;b&gt;&lt;font style=&quot;font-size: 15px;&quot;&gt;Restore Dependencies&lt;/font&gt;&lt;/b&gt;" style="rounded=1;whiteSpace=wrap;html=1;fillColor=#e1d5e7;strokeColor=#9673a6;" vertex="1" parent="1">
          <mxGeometry x="355" y="360" width="130" height="40" as="geometry" />
        </mxCell>
        <mxCell id="rwar1H766Dd_d3rqaXCX-13" style="edgeStyle=orthogonalEdgeStyle;rounded=0;orthogonalLoop=1;jettySize=auto;html=1;" edge="1" parent="1" source="rwar1H766Dd_d3rqaXCX-10" target="rwar1H766Dd_d3rqaXCX-12">
          <mxGeometry relative="1" as="geometry" />
        </mxCell>
        <mxCell id="rwar1H766Dd_d3rqaXCX-10" value="&lt;b&gt;&lt;font style=&quot;font-size: 15px;&quot;&gt;Build&lt;/font&gt;&lt;/b&gt;" style="rounded=1;whiteSpace=wrap;html=1;fillColor=#e1d5e7;strokeColor=#9673a6;" vertex="1" parent="1">
          <mxGeometry x="355" y="440" width="130" height="40" as="geometry" />
        </mxCell>
        <mxCell id="rwar1H766Dd_d3rqaXCX-14" style="edgeStyle=orthogonalEdgeStyle;rounded=0;orthogonalLoop=1;jettySize=auto;html=1;" edge="1" parent="1" source="rwar1H766Dd_d3rqaXCX-12" target="rwar1H766Dd_d3rqaXCX-15">
          <mxGeometry relative="1" as="geometry">
            <mxPoint x="414" y="600" as="targetPoint" />
          </mxGeometry>
        </mxCell>
        <mxCell id="rwar1H766Dd_d3rqaXCX-12" value="&lt;b&gt;&lt;font style=&quot;font-size: 15px;&quot;&gt;Test&lt;/font&gt;&lt;/b&gt;" style="rounded=1;whiteSpace=wrap;html=1;fillColor=#e1d5e7;strokeColor=#9673a6;" vertex="1" parent="1">
          <mxGeometry x="355" y="520" width="130" height="40" as="geometry" />
        </mxCell>
        <mxCell id="rwar1H766Dd_d3rqaXCX-15" value="" style="ellipse;whiteSpace=wrap;html=1;aspect=fixed;" vertex="1" parent="1">
          <mxGeometry x="400" y="600" width="40" height="40" as="geometry" />
        </mxCell>
        <mxCell id="rwar1H766Dd_d3rqaXCX-16" value="" style="ellipse;whiteSpace=wrap;html=1;aspect=fixed;fillColor=#000000;" vertex="1" parent="1">
          <mxGeometry x="405" y="605" width="30" height="30" as="geometry" />
        </mxCell>
        <mxCell id="rwar1H766Dd_d3rqaXCX-20" value="&amp;nbsp;Version 8.x" style="shape=note;whiteSpace=wrap;html=1;backgroundOutline=1;darkOpacity=0.05;fillColor=#dae8fc;strokeColor=#6c8ebf;align=left;" vertex="1" parent="1">
          <mxGeometry x="525" y="290" width="90" height="20" as="geometry" />
        </mxCell>
      </root>
    </mxGraphModel>
  </diagram>
</mxfile>
